<?xml version="1.0" standalone="no"?><!DOCTYPE svg PUBLIC "-//W3C//DTD SVG 1.1//EN" "http://www.w3.org/Graphics/SVG/1.1/DTD/svg11.dtd"><svg t="1603896240687" class="icon" viewBox="0 0 1024 1024" version="1.1" xmlns="http://www.w3.org/2000/svg" p-id="3062" xmlns:xlink="http://www.w3.org/1999/xlink" width="200" height="200"><defs><style type="text/css"></style></defs><path d="M804.571429 73.142857a146.285714 146.285714 0 0 1 146.285714 146.285714v585.142858a146.285714 146.285714 0 0 1-146.285714 146.285714H219.428571a146.285714 146.285714 0 0 1-146.285714-146.285714V219.428571a146.285714 146.285714 0 0 1 146.285714-146.285714h585.142858zM558.006857 338.870857a94.646857 94.646857 0 0 0-102.180571 0c-31.305143 19.968-49.005714 56.466286-45.714286 94.208a103.862857 103.862857 0 0 0 54.857143 92.891429c-62.976 7.094857-110.445714 62.390857-109.714286 127.707428l2.413714 4.900572c0 19.382857 12.507429 30.72 37.595429 36.352 27.794286 4.315429 55.808 5.851429 83.821714 4.827428h68.973715c64.219429 0 120.685714 0 120.685714-41.179428v-4.900572c0.877714-69.12-52.077714-126.244571-119.149714-128.438857 33.353143-17.846857 54.198857-53.394286 54.125714-92.16a101.229714 101.229714 0 0 0-45.714286-94.208z" p-id="3063"></path></svg>