<svg t="1624890659690" class="icon" viewBox="0 0 1024 1024" version="1.1" xmlns="http://www.w3.org/2000/svg" p-id="6304" width="200" height="200"><path d="M768 304v24h-48v-72L624 160H312a96 96 0 0 0-96 96v512a96 96 0 0 0 96 96h400a96 96 0 0 0 96-96V344zM304 768h-48V688h48z m0-146.64h-48v-80h48z m0-146.64h-48v-80h48zM304 328h-48V248h48z m275.2 200l-86.4 49.6a18.24 18.24 0 0 1-27.36-16V462.16a18.24 18.24 0 0 1 27.36-16L579.2 496a18.24 18.24 0 0 1 0 32zM768 768h-48V688h48z m0-146.64h-48v-80h48z m0-146.64h-48v-80h48z" p-id="6305"></path><path d="M712 256v48h56l40 40H720a96 96 0 0 1-96-96V160l96 96z" p-id="6306"></path></svg>
