<svg t="1621065591388" class="icon" viewBox="0 0 1024 1024" version="1.1" xmlns="http://www.w3.org/2000/svg" p-id="15130" width="200" height="200"><path d="M276.352 75.946667a25.6 25.6 0 0 1 25.6 25.6v460.8a25.6 25.6 0 1 1-51.2 0V101.546667a25.6 25.6 0 0 1 25.6-25.6z" p-id="15131"></path><path d="M276.352 563.626667a192 192 0 0 0-192 192v170.666666a21.333333 21.333333 0 0 0 21.333333 21.333334H175.786667v-94.72a25.6 25.6 0 0 1 51.2-0.042667v94.805333h109.44v-94.805333a25.6 25.6 0 0 1 51.2 0v94.805333h59.306666a21.333333 21.333333 0 0 0 21.333334-21.333333v-170.666667a192 192 0 0 0-192-192z m-85.333333 136.789333a21.333333 21.333333 0 1 0 0 42.666667h170.666666a21.333333 21.333333 0 0 0 0-42.666667h-170.666666zM482.432 308.053333a42.666667 42.666667 0 0 0-42.24 48.298667l73.898667 554.666667a42.666667 42.666667 0 0 0 42.325333 37.034666h266.624a42.666667 42.666667 0 0 0 42.24-37.034666l73.984-554.666667a42.666667 42.666667 0 0 0-42.282667-48.298667h-414.549333z m336.768 152.533334a25.6 25.6 0 1 0-45.653333-23.168c-27.605333 54.442667-56.661333 71.978667-79.232 71.978666-23.466667 0-55.594667-18.688-89.472-73.813333a25.6 25.6 0 1 0-43.605334 26.837333c36.608 59.562667 82.090667 98.133333 133.12 98.133334 51.925333 0 94.293333-39.765333 124.842667-99.968z" p-id="15132"></path></svg>
