<svg t="1621042835098" class="icon" viewBox="0 0 1024 1024" version="1.1" xmlns="http://www.w3.org/2000/svg" p-id="1868" width="200" height="200"><path d="M494.16 147.684a22.756 22.756 0 0 1 35.68 0L717.37 384.569a22.756 22.756 0 0 0 26.806 6.792l182.818-78.347a22.756 22.756 0 0 1 31.255 25.543l-101.24 487.765a91.022 91.022 0 0 1-89.122 72.522H256.114a91.022 91.022 0 0 1-89.122-72.522L65.752 338.557a22.756 22.756 0 0 1 31.244-25.543l182.83 78.347a22.756 22.756 0 0 0 26.805-6.792L494.16 147.684z" p-id="1869"></path></svg>
