<svg t="1621064901782" class="icon" viewBox="0 0 1024 1024" version="1.1" xmlns="http://www.w3.org/2000/svg" p-id="3822" width="200" height="200"><path d="M529.3 677.4c-85.9 0-155.8-69.9-155.8-155.8V499c0-85.9 69.9-155.8 155.8-155.8H912V220.7c0-85.9-69.9-155.8-155.8-155.8H268.8c-85.9 0-155.8 69.9-155.8 155.8v582.9c0 85.9 69.9 155.8 155.8 155.8h487.4c85.9 0 155.8-69.9 155.8-155.8V677.4H529.3z" p-id="3823"></path><path d="M529.3 413.6c-47.1 0-85.4 38.3-85.4 85.4v22.6c0 47.1 38.3 85.4 85.4 85.4H912V413.6H529.3z m17.2 144.2c-27.3 0-49.4-22.1-49.4-49.4 0-27.3 22.1-49.4 49.4-49.4 27.3 0 49.4 22.1 49.4 49.4 0 27.3-22.1 49.4-49.4 49.4z" p-id="3824"></path></svg>
