<?xml version="1.0" standalone="no"?><!DOCTYPE svg PUBLIC "-//W3C//DTD SVG 1.1//EN" "http://www.w3.org/Graphics/SVG/1.1/DTD/svg11.dtd"><svg t="1586171190146" class="icon" viewBox="0 0 1024 1024" version="1.1" xmlns="http://www.w3.org/2000/svg" p-id="1142" xmlns:xlink="http://www.w3.org/1999/xlink" width="200" height="200"><defs><style type="text/css"></style></defs><path d="M64.1 128.2v272c0 35.3 28.7 64 64 64h272c35.3 0 64-28.7 64-64v-272c0-35.3-28.7-64-64-64h-272c-35.4 0-64 28.7-64 64z m304 272h-208c-17.7 0-32-14.3-32-32v-208c0-17.7 14.3-32 32-32h208c17.7 0 32 14.3 32 32v208c0 17.7-14.4 32-32 32zM560.1 128v272c0 35.3 28.7 64 64 64h272c35.3 0 64-28.7 64-64V128c0-35.3-28.7-64-64-64h-272c-35.3 0-64 28.6-64 64z m304 272h-208c-17.7 0-32-14.3-32-32V160c0-17.7 14.3-32 32-32h208c17.7 0 32 14.3 32 32v208c0 17.6-14.3 32-32 32zM64.1 623.6v272c0 35.3 28.7 64 64 64h272c35.3 0 64-28.7 64-64v-272c0-35.3-28.7-64-64-64h-272c-35.4 0-64 28.6-64 64z m304 272h-208c-17.7 0-32-14.3-32-32v-208c0-17.7 14.3-32 32-32h208c17.7 0 32 14.3 32 32v208c0 17.6-14.4 32-32 32zM592.1 941c-17.6 0-32-14.4-32-32V613c0-17.6 14.4-32 32-32s32 14.4 32 32v296c0 17.6-14.4 32-32 32zM763.1 886c-17.6 0-32-14.4-32-32V668c0-17.6 14.4-32 32-32s32 14.4 32 32v186c0 17.6-14.4 32-32 32zM928 961c-17.6 0-32-14.4-32-32V593c0-17.6 14.4-32 32-32s32 14.4 32 32v336c0 17.6-14.4 32-32 32z" fill="" p-id="1143"></path></svg>
