<svg t="1625673003350" class="icon" viewBox="0 0 1024 1024" version="1.1" xmlns="http://www.w3.org/2000/svg" p-id="2414" width="200" height="200"><path d="M888.192 482.688l-213.248-93.696 30.848-70.272 142.464 62.592 61.568-142.464 70.528 30.464z" p-id="2415"></path><path d="M161.664 521.6h-76.8c0-229.376 186.624-416 416-416C657.024 105.6 798.592 192 870.4 331.136c15.36 29.184 25.216 59.264 32.128 82.048L828.928 435.2c-5.888-19.584-14.208-44.928-26.624-68.608-58.624-113.792-174.08-184.32-301.44-184.32-187.008 0.128-339.2 152.192-339.2 339.328zM103.68 802.688l-70.784-29.824 90.368-214.656 213.376 90.624-29.952 70.656-142.464-60.544z" p-id="2416"></path><path d="M510.464 931.2c-154.88 0-295.808-84.48-368.512-221.312C125.952 679.68 115.584 652.8 108.928 625.152l74.752-17.792c4.992 21.248 13.312 42.368 26.112 66.56a339.4048 339.4048 0 0 0 300.544 180.48h3.072c90.624-1.152 175.616-37.376 238.976-101.888 63.488-64.64 97.792-150.144 96.64-240.64l76.8-0.896c1.408 111.104-40.832 216.064-118.656 295.424-77.696 79.232-181.76 123.52-292.992 124.928-1.28-0.128-2.56-0.128-3.712-0.128z" p-id="2417"></path></svg>
