<?xml version="1.0" standalone="no"?><!DOCTYPE svg PUBLIC "-//W3C//DTD SVG 1.1//EN" "http://www.w3.org/Graphics/SVG/1.1/DTD/svg11.dtd"><svg t="1606315918694" class="icon" viewBox="0 0 1024 1024" version="1.1" xmlns="http://www.w3.org/2000/svg" p-id="5361" xmlns:xlink="http://www.w3.org/1999/xlink" width="200" height="200"><defs><style type="text/css"></style></defs><path d="M879 223.5c0-48.3-39.2-87.5-87.5-87.5h-560c-48.3 0-87.5 39.2-87.5 87.5v560c0 48.3 39.2 87.5 87.5 87.5h560c48.3 0 87.5-39.2 87.5-87.5v-560z m-35 560c0 29-23.5 52.5-52.5 52.5h-560c-29 0-52.5-23.5-52.5-52.5v-560c0-29 23.5-52.5 52.5-52.5h560c29 0 52.5 23.5 52.5 52.5v560z" p-id="5362"></path><path d="M163.2 333.7h681.3v35H163.2z" p-id="5363"></path><path d="M286.8 252.7m-17.5 0a17.5 17.5 0 1 0 35 0 17.5 17.5 0 1 0-35 0Z" p-id="5364"></path><path d="M365.9 252.7m-17.5 0a17.5 17.5 0 1 0 35 0 17.5 17.5 0 1 0-35 0Z" p-id="5365"></path><path d="M444.9 252.7m-17.5 0a17.5 17.5 0 1 0 35 0 17.5 17.5 0 1 0-35 0Z" p-id="5366"></path><path d="M427.6 540v27.1l-107.2 46 107.2 46v27.1l-142.5-62.1v-22.3L427.6 540zM548.7 454.5h26l-98.5 259.6H450l98.7-259.6zM596.9 540l142.5 61.8v22.3l-142.5 62.1v-27.1l107.2-46-107.2-46V540z" p-id="5367"></path></svg>